# xmcd
#
# Track frame offsets:
#	150
#	30283
#	56183
#	78871
#	104527
#	118164
#	133824
#	153441
#	193352
#	213741
#	245165
#	264306
#
# Disc length: 3918 seconds
#
# Revision: 0
# Processed by: cddbd v1.5.1PL2 Copyright (c) Steve Scherf et al.
# Submitted via: dBpowerAMP V4.0
#
DISCID=b30f4c0c
DTITLE=Los Blancos - Special Blend
DYEAR=1999
DGENRE=Blues
TTITLE0=Mighty Mean Mama
TTITLE1=Kaffe
TTITLE2=Roughed Up
TTITLE3=Strut
TTITLE4=I Got To Tell You
TTITLE5=Somethin' Just Ain't Right
TTITLE6=Block That Kick
TTITLE7=Crazy Mama
TTITLE8=Summertime
TTITLE9=Wild Wild Woman
TTITLE10=Shakin' That Thang
TTITLE11=Duke's Special Blend
EXTD=
EXTT0=
EXTT1=
EXTT2=
EXTT3=
EXTT4=
EXTT5=
EXTT6=
EXTT7=
EXTT8=
EXTT9=
EXTT10=
EXTT11=
PLAYORDER=
